<svg xmlns="http://www.w3.org/2000/svg" viewBox="0 0 1232 216" width="1232" height="216"><defs><style>.cls-1{fill:#004fbb;}.cls-2{fill:#030269;}.cls-3{fill:#2f95fe;}.cls-4{fill:#fe0000;}.cls-5{fill:#030052;}.cls-6{fill:#7ddcfe;}</style></defs><title>Asset 1</title><g id="Layer_2" data-name="Layer 2"><g id="Layer_1-2" data-name="Layer 1"><g id="GEXJxf.tif"><path class="cls-1" d="M1143,216l-2-15.51c6.81-3.37,14.57-5,19.88-10.25,4.14-4.06,8.75-8.42,10-15.28-11.65,1.43-13.1-7.78-15.87-15.44-7.87-21.73-15.59-43.51-23.39-65.26a14.42,14.42,0,0,0-1.16-2.09h-26.91c-1.57,9.18-.7,53.72,1.14,59.08,7,5,15.08,1.64,23,3.1l3.35,18.84c-3.69,2.74-8.05,2.89-12.12,3.22-9.12.74-18.26,2-27.2-2-10.58-4.67-14.19-13.83-14.59-23.9-.74-19-.23-38-.25-57a8.92,8.92,0,0,0-.31-1.41h-17.37V74.32l17.6-1.63V44.27h25.94V72.7h49c8.38,27.93,18.25,55.1,26.83,83.49L1205.14,73H1232v2c-.16.06-.42.08-.45.18-8.2,22.88-16.26,45.81-24.62,68.64-5.43,14.83-9.33,30.3-17,44.2-6.11,11-13.43,21.11-26.43,25.25-2.81.9-6,.72-8.46,2.73Z"/><path d="M0,136H18.13c2,1.74,2.11,4.49,3.11,6.75,6.83,15.45,18.49,25.51,34.79,29,12.15,2.62,24.65,2.83,36.48-2.66,3.34-1.55,7.25-2.29,10.06-4.48C112.74,156.7,120,147,120,133.22q-.06-47.48,0-95V33.17H55l7.9-16H138v5.52c0,35,.2,70-.1,105-.13,14.95-3.42,29.38-13.39,41.06-6.36,7.46-14.93,12.64-24.1,15.93a89.32,89.32,0,0,1-32,5.23c-17.44-.37-33.82-5.28-46.71-17.19A73.58,73.58,0,0,1,3,144.64c-.68-1.81-1-3.77-3-4.64Z"/><path class="cls-2" d="M252,0V12c-20.69-1.83-38.3,6.42-54.45,17.38C181.13,40.55,170.11,56.6,162.8,75.2l-9.72-3.5c5.51-18.26,16.29-32.86,30-45.12A104.28,104.28,0,0,1,232.28,1.84C236.19,1,240.36,2.18,244,0Z"/><path d="M535,111H383.58c-1.26,23.59,14.74,47.5,42.87,58.23,27.89,10.64,59.87,7,82.81-32.07h19.33c-2.94,8.32-8.31,15.15-13.41,22.18-6.76,9.3-16.11,15.69-25.32,22-6.63,4.56-14.93,5.65-22.7,7.6-18.46,4.62-36.47,1.56-53-6.31-14.77-7-26.36-18.7-35.2-32.82-6.52-10.42-10.08-21.6-12.14-33.73-3.41-20.12,1.53-38.29,10.18-56C382,49.74,390,42,398.69,34.6c10.9-9.27,23.71-14.42,37.24-17.35,12.89-2.79,26.07-1.39,38.79,2.15,10.89,3,19.92,9.48,28.75,16.4,10,7.83,17.06,17.79,22.62,28.86a76.8,76.8,0,0,1,8.11,29.62C534.55,99.69,535,105.05,535,111ZM383.7,95.78H516.85C510.9,53,477.91,32.75,451.21,33c-16.3.14-31.47,4.55-43.1,15.83C395,61.48,383.63,75.81,383.7,95.78Z"/><path class="cls-1" d="M640.43,54.3c-17.61-2.19-34.2-1-50.77-1.28-4.49-.08-8.76.75-12.29,3.87-.22.2-.7.11-.9.31-5.34,5.4-2.7,22.22,4.08,25.92,10.06,5.49,21.32,7.52,32.13,10.69,10,2.94,18.71,7.58,25.67,15.17,4.37,4.76,6.44,11.39,7.24,17.24,1.5,11,1.06,22.25-3.56,32.89-4.33,10-12.84,13.87-22.57,15.83-14.83,3-29.77,2.61-44.78,1.18-8.46-.81-16.82-2.2-25.32-3.19-1.56-6.63,1.63-12.89.4-20,10.63.57,20.78-.71,31,.78,5.7.83,11.63.31,17.44,0,1.34-.07,2.79-.74,4.3-.77,12.18-.25,16-4,16.47-16.13.38-10.55-2.22-13.55-14.53-17.9-10.82-3.82-22-6.61-32.65-10.84-14.5-5.74-22-16.19-23.9-31.45-1.14-9.08.3-17.72,1.88-26.58,2.08-11.7,11.09-15.45,20.22-17.83,14.16-3.7,28.94-2.71,43.43-2a86.64,86.64,0,0,1,27.33,5.31C642.08,41.45,638.85,47.34,640.43,54.3Z"/><path class="cls-1" d="M678.95,135c1.26,7.57,1.93,15.19,10.15,17.92,7.23,2.4,14.7,4.28,22.5,2.32a18.8,18.8,0,0,1,5-.23c8.37.21,16.7,0,25.11-2.28l2.42,16.65c-8.67,4.17-17.62,7.28-27.31,7.57-7.82.23-15.65.09-23.48,0-21.53-.13-36.84-14-40.42-35.37-2.47-14.78-2.41-29.51,1.4-43.75,3.29-12.27,14.86-24.77,29.24-25.91,6-.48,12.12-2.31,18-1.75,10.86,1,22.08,1.12,31.87,7.47,7.44,4.83,10.72,12,12.58,20.08a37.74,37.74,0,0,1-1,19.74c-3.25,10.57-8.76,15.17-18.63,16.52-13.89,1.9-27.83.49-41.74.95C682.8,135.05,681,135,678.95,135Zm-1.07-18c11.83,0,23.28.24,34.72-.13,3.93-.13,6.57-2.33,7.67-7.07,1.05-4.57-.27-8.25-1.25-12.29S715.51,92,711.54,92c-6.17,0-12.28-1-18.54-.13-5,.7-8.54,2.63-10.94,6.88C678.93,104.25,679.08,110.5,677.88,117Z"/><path class="cls-1" d="M913,73.16h24.41c.72,4.08.93,94.25.24,101.56h-19c-2.43-3.65-.52-8.74-3.27-12.81-9.45,5.44-18.44,11.79-29.38,13.55-9.63,1.55-19.34,3.75-28.53-2.32-6.74-4.46-11.2-10.56-11.32-18.4-.4-26.47-.15-53-.14-79.43,0-.63.12-1.26.21-2.09h25.19c1.23,1.47.55,3.38.56,5.12q.08,33,0,65.94c0,7.42,3.39,10.3,10.88,10.84,5.75.42,10.55-1.68,15.43-3.92s9.61-4.7,14.69-7.21V73.16Z"/><path class="cls-1" d="M837.06,76.46l-3.28,16.39c-8.82.82-17.31-1.5-25.92-.91-4.57.31-9,1.21-13.51,1.88-7.94,1.18-12.14,6.13-13.81,13.25a75.06,75.06,0,0,0-.06,33.77c2.08,9.24,8.1,13,18,14.28,10.56,1.35,20.9.11,31.31-1.07a52.23,52.23,0,0,1,5.69,0c2.23,5.16,1.55,10.9,4,16.3-6.21,2.85-12.61,4.06-18.8,5.23-15.82,3-31.67,2.77-46.87-3.32-12.12-4.86-17-15.28-19.82-27.18-2.5-10.43-2.55-21-1.75-31.49.83-10.83,3.4-21.66,10.38-30.39,4.75-5.94,11.69-9.48,19.16-10.9,6.89-1.31,14.1-2.72,21-2C814.17,71.48,826.25,70.4,837.06,76.46Z"/><path class="cls-1" d="M298,36c1.76-6.63,6.27-11.82,9-18,44.53,30.12,56.55,77.85,43.31,117.75-15.75,47.47-59.23,73.59-102.91,70.94-1.77-6.06,1.42-12,.4-18.6,15.7.29,30.58-2.24,44.2-10,8.41-3.91,15.94-8.88,20.79-17.11,3.34-3.82,6.89-7.48,9.33-12a2.51,2.51,0,0,0,2.72-1.66c2.24-4.79,4.87-9.47,6.47-14.47.64-2,3.29-4.5.64-7l1-1.67c1.69-1.71,3.58-1,5.62-.17,4.11-18.59,3.31-36.46-4-53.94L328.17,72a49.14,49.14,0,0,1-5.33-10c0-.81.3-1.79,0-2.42a65.46,65.46,0,0,0-14.53-17.74c-.92-.81-1.94-1.55-3.29-.9l.09.08c-.1-2.71-1.72-3.38-4.09-3.08l.09.08c.15-2.45-1.31-2.5-3.09-2.08Z"/><path class="cls-1" d="M979.16,174.84H953.31V73.28h19.94c2.86,3.93.47,9.42,3.43,14,13.22-10.61,27.51-18,45.39-17.16l-2.27,25c-14.44-2-27.29,3.68-40.63,8.74Z"/><path class="cls-1" d="M1027.3,73.15h25.06c.82,4.13,1.14,90.4.38,101.53H1027.3Z"/><path class="cls-3" d="M242.14,179c-.38,2.59-1.09,5.18-1,7.76s-1.24,5.08-1.31,7.7c-47.87-5.56-82.88-50.33-77.45-101,2.58-1.42,4.95,1.37,7.5.57-.18,6.83-1.07,13.52,0,20.5,2.36,16,7.71,30.4,18.08,42.84,1.22,1.46,1.59,3.64,4,4.48l1.91-2c-14.28-19.41-23.54-40.13-19.61-64.82,3.33-.35,6.44.59,9.8,1.58-.12,10.76.33,21.32,3.91,31.65,6.26,18,18.2,30.67,35.14,38.93,6.11,3.73,13.33,4.13,19.54,6.21C243.78,175.7,241.75,177.18,242.14,179Z"/><path class="cls-4" d="M322.83,62a49.14,49.14,0,0,0,5.33,10c-3,2.29-7.37,2-10.27,5a31.4,31.4,0,0,1,4.63,15.1c.47,8.3,3.06,16.68-.4,24.92-.15.06-.42.12-.42.18a4,4,0,0,0,.14.77v1h-1.67c-.83-3,.66-5.79,1-8.65a53.75,53.75,0,0,0-4.86-30.58c-3.88-8-7.11-16.46-13.78-22.69-11.34-10.59-24-18.24-40-20.37-9.92-1.32-19,1.38-29.05,2-2.46-3.2-1.81-7.88-3.86-12.08,24.48-7.16,46.92-2.47,68.39,9.4l-.07-.1A2.67,2.67,0,0,0,301.07,38l-.09-.08c.88,1.67,1.87,3.19,4.09,3.08l-.09-.08A234,234,0,0,1,322.83,62Z"/><path class="cls-5" d="M242.14,179c-.39-1.82,1.65-3.3.42-5.63-6.21-2.08-13.43-2.48-19.54-6.21,4.13-2,7.65.72,11.32,1.66,6.78,1.74,13.44,4.12,20.6,3.17,15.29-2,29.33-6.76,41.57-16.78C306,147.45,311,136.87,317,126.83a1.29,1.29,0,0,0,.82.17c1.28,1.69,4.19.78,4.92,2.68a71.28,71.28,0,0,1-17.46,28.45C296.74,166.9,286,172.4,274.83,177c-6.53,1-13,2.07-19.58,3C250.84,180.58,246.51,179.43,242.14,179Z"/><path class="cls-1" d="M1049.57,30.11c5.48,7.86,4.9,19.82-1.32,25.89H1031c-6.69-5.38-7.39-20.22-1.3-25.88Z"/><path class="cls-4" d="M274.83,177c11.2-4.6,21.9-10.1,30.46-18.87a71.28,71.28,0,0,0,17.46-28.45c-.73-1.9-3.63-1-4.92-2.68q0-.49,0-1c2.21-1.86.12-5.15,2.33-7h1.67c1.26,1.39,3.11,1.55,4.72,1.91,2.48.56,4.9,1,6.44,3.25l-1,1.67c-1.54.48-.84,2-1.27,2.94-2.92,6.72-5.72,13.48-8.57,20.23-2.45,4.52-6,8.18-9.33,12L292,176.88,277,183C274.87,181.48,275.07,179.16,274.83,177Z"/><path d="M174.17,95c-3.93,24.69,5.33,45.41,19.61,64.82l-1.91,2c-2.4-.84-2.77-3-4-4.48-10.37-12.44-15.72-26.88-18.08-42.84-1-7-.15-13.68,0-20.5.89-14,8.17-25.45,14.83-37.13,1.56-2.73,3.37-5.32,5.18-8.15,2.2,1.07,3.78,1.68,1.65,4.38a88,88,0,0,0-13.76,24.59A57.79,57.79,0,0,0,174.17,95Z"/><path class="cls-6" d="M333,124.17c-1.55-2.29-4-2.69-6.44-3.25-1.61-.36-3.46-.52-4.72-1.91v-1a6,6,0,0,0,.28-.94c3.46-8.25.87-16.62.4-24.92A31.4,31.4,0,0,0,317.9,77c2.9-3,7.22-2.72,10.27-5l6.43-1.95c7.33,17.48,8.13,35.36,4,53.94C336.58,123.13,334.68,122.46,333,124.17Z"/><path class="cls-4" d="M322.12,117a6,6,0,0,1-.28.94,4,4,0,0,1-.14-.77C321.69,117.16,322,117.1,322.12,117Z"/></g></g></g></svg>